<?xml version="1.0" encoding="UTF-8" standalone="no" ?>
<!DOCTYPE svg PUBLIC "-//W3C//DTD SVG 1.1//EN" "http://www.w3.org/Graphics/SVG/1.1/DTD/svg11.dtd">
<svg xmlns="http://www.w3.org/2000/svg" xmlns:xlink="http://www.w3.org/1999/xlink" version="1.1" width="72" height="96" viewBox="0 0 72 96" xml:space="preserve">
    <desc>Created with Fabric.js 5.3.0</desc>
    <defs>
</defs>
    <g transform="matrix(1 0 0 1 34.6449511401 53.1596091205)" id="avEA-g4hxhKlalt7VTZbF"  >
        <path style="stroke: rgb(159,232,224); stroke-width: 0; stroke-dasharray: none; stroke-linecap: butt; stroke-dashoffset: 0; stroke-linejoin: miter; stroke-miterlimit: 4; fill: rgb(255,255,255); fill-rule: nonzero; opacity: 1;"  transform=" translate(-24.39088, -24.39088)" d="M 0 0 L 48.78176 0 L 48.78176 48.78176 L 0 48.78176 z" stroke-linecap="round" />
    </g>
    <g transform="matrix(1 0 0 1 36 48)" id="yYvgfbxk4UqJzDeVWRQzP"  >
        <g style=""   >
            <g transform="matrix(1 0 0 1 25.95 -35.4)" id="n3JlrjBxGrnrq7xmUDcIy"  >
                <path style="stroke: none; stroke-width: 1; stroke-dasharray: none; stroke-linecap: butt; stroke-dashoffset: 0; stroke-linejoin: miter; stroke-miterlimit: 4; fill: rgb(255,255,255); fill-rule: nonzero; opacity: 1;"  transform=" translate(-61.95, -12.6)" d="M 71.9 24 C 71.80000000000001 23.6 71.7 23.3 71.5 23 L 52 1.2 L 52 24 L 71.9 24 z" stroke-linecap="round" />
            </g>
            <g transform="matrix(1 0 0 1 0 0)" id="8_ycdAu3g8YpwiJJr2Fh0"  >
                <path style="stroke: none; stroke-width: 1; stroke-dasharray: none; stroke-linecap: butt; stroke-dashoffset: 0; stroke-linejoin: miter; stroke-miterlimit: 4; fill: rgb(255,255,255); fill-rule: nonzero; opacity: 1;"  transform=" translate(-36, -48)" d="M 0 2 L 0 94 C 0 95.1 0.9 96 2 96 L 70 96 C 71.1 96 72 95.1 72 94 L 72 28 L 50 28 C 48.9 28 48 27.1 48 26 L 48 0 L 2 0 C 0.9 0 0 0.9 0 2 z" stroke-linecap="round" />
            </g>
            <g transform="matrix(1 0 0 1 0 0)" id="Lf2nUbdgs9AMOQ09IokLH"  >
                <path style="stroke: none; stroke-width: 1; stroke-dasharray: none; stroke-linecap: butt; stroke-dashoffset: 0; stroke-linejoin: miter; stroke-miterlimit: 4; fill: rgb(186,186,186); fill-rule: nonzero; opacity: 1;"  transform=" translate(-36, -48)" d="M 0 94 L 0 2 C 0 0.9 0.9 0 2 0 L 50 0 C 50.6 0 51.1 0.2 51.5 0.7 L 71.5 23 C 71.8 23.4 72 23.8 72 24.3 L 72 94 C 72 95.1 71.1 96 70 96 L 2 96 C 0.8999999999999999 96 0 95.1 0 94 z M 68 25.099999999999994 L 49.1 4 L 4 4 L 4 92 L 68 92 L 68 25.1 z" stroke-linecap="round" />
            </g>
            <g transform="matrix(1 0 0 1 6.75 -11.5)" id="_18NmSCbu-2ihVYzU-LgW"  >
                <path style="stroke: none; stroke-width: 1; stroke-dasharray: none; stroke-linecap: butt; stroke-dashoffset: 0; stroke-linejoin: miter; stroke-miterlimit: 4; fill: rgb(186,186,186); fill-rule: nonzero; opacity: 1;"  transform=" translate(-42.75, -36.5)" d="M 48 26 L 48 4 C 48 2.9 48.9 2 50 2 C 51.1 2 52 2.9 52 4 L 52 24 L 68 24 C 69.1 24 70 24.9 70 26 C 70 27.1 69.1 28 68 28 L 50 28 C 48.9 28 48 27.1 48 26 z M 50.5 36 C 42.5 28 29.5 28 21.5 36 C 13.5 44 13.5 57 21.5 65 C 29.5 73 42.5 73 50.5 65 C 58.5 57 58.5 44 50.5 36 z M 23.3 58.7 C 19.5 52.800000000000004 20.2 44.900000000000006 25.3 39.800000000000004 C 30.400000000000002 34.7 38.3 34.00000000000001 44.2 37.800000000000004 L 23.3 58.7 z M 27.8 63.2 L 48.7 42.300000000000004 C 52.5 48.2 51.800000000000004 56.10000000000001 46.7 61.2 C 41.6 66.3 33.7 67 27.800000000000004 63.2 z" stroke-linecap="round" />
            </g>
        </g>
    </g>
    <g transform="matrix(1 0 0 0.8881720348 36 50.6058628928)" id="681AautpfWl6RfkH4ixWm"  >
        <path style="stroke: rgb(128,170,206); stroke-width: 0; stroke-dasharray: none; stroke-linecap: butt; stroke-dashoffset: 0; stroke-linejoin: miter; stroke-miterlimit: 4; fill: rgb(255,255,255); fill-rule: nonzero; opacity: 1;"  transform=" translate(0, 0)" d="M -24.23453 -24.23453 L 24.23453 -24.23453 L 24.23453 24.23453 L -24.23453 24.23453 z" stroke-linecap="round" />
    </g>
</svg>